<svg width="25" height="24" viewBox="0 0 25 24" fill="none" xmlns="http://www.w3.org/2000/svg">
<path fill-rule="evenodd" clip-rule="evenodd" d="M20.66 12.1932C20.66 11.5905 20.6059 11.011 20.5055 10.4546H12.5V13.7425H17.0746C16.8775 14.8051 16.2786 15.7053 15.3784 16.308V18.4407H18.1255C19.7327 16.961 20.66 14.7819 20.66 12.1932Z" fill="#4285F4"/>
<path fill-rule="evenodd" clip-rule="evenodd" d="M12.5002 20.5C14.7952 20.5 16.7193 19.7389 18.1257 18.4407L15.3786 16.3079C14.6175 16.8179 13.6439 17.1193 12.5002 17.1193C10.2864 17.1193 8.41248 15.6241 7.74407 13.615H4.9043V15.8173C6.30294 18.5952 9.17749 20.5 12.5002 20.5Z" fill="#34A853"/>
<path fill-rule="evenodd" clip-rule="evenodd" d="M7.74387 13.615C7.57387 13.105 7.47728 12.5602 7.47728 12C7.47728 11.4398 7.57387 10.895 7.74387 10.385V8.18274H4.90409C4.32841 9.33024 4 10.6284 4 12C4 13.3716 4.32841 14.6698 4.90409 15.8173L7.74387 13.615Z" fill="#FBBC05"/>
<path fill-rule="evenodd" clip-rule="evenodd" d="M12.5002 6.88069C13.7482 6.88069 14.8686 7.30955 15.7495 8.15183L18.1875 5.71387C16.7155 4.34227 14.7914 3.5 12.5002 3.5C9.17748 3.5 6.30294 5.40478 4.9043 8.18274L7.74407 10.385C8.41248 8.37592 10.2864 6.88069 12.5002 6.88069Z" fill="#EA4335"/>
</svg>
